# xmcd CD database file
#
# Track frame offsets:
#	150
#	12704
#	24796
#	37059
#	48622
#	60392
#	72637
#	87032
#	97862
#	110039
#	122872
#	136358
#	148871
#	160563
#	172850
#	184688
#	195766
#	208465
#	221410
#	234475
#
# Disc length: 3277 seconds
#
# Revision: 2
# Processed by: cddbd v1.5.2PL0 Copyright (c) Steve Scherf et al.
# Submitted via: CDex 1.51
#
DISCID=1a0ccb14
DTITLE=Hank Williams - Golden Greats CD3
DYEAR=2003
DGENRE=Country
TTITLE0=They'll never take her love
TTITLE1=Honky tonk blues
TTITLE2=I'm sorry for you my friend
TTITLE3=Window shopping
TTITLE4=Settin' the woods on fire
TTITLE5=Your cheatin' heart
TTITLE6=Men with broken hearts
TTITLE7=Let's turn back the years
TTITLE8=My Love for you has turned to hate
TTITLE9=I can't get you off my mind
TTITLE10=Be carefull of stones that you throw
TTITLE11=Wealth won't save your soul
TTITLE12=Mansion on the hill
TTITLE13=My sweet love ain't around
TTITLE14=I'll be a bachelor till I die
TTITLE15=(I'd heard) That lon some whistle
TTITLE16=There'll be no teardrops tonight
TTITLE17=Pictures from live's other side
TTITLE18=The pale horse and his rider
TTITLE19=A home in heaven
EXTD=YEAR: 2003
EXTT0=
EXTT1=
EXTT2=
EXTT3=
EXTT4=
EXTT5=
EXTT6=
EXTT7=
EXTT8=
EXTT9=
EXTT10=
EXTT11=
EXTT12=
EXTT13=
EXTT14=
EXTT15=
EXTT16=
EXTT17=
EXTT18=
EXTT19=
PLAYORDER=
